<svg width="251" height="57" viewBox="0 0 251 57" fill="none" xmlns="http://www.w3.org/2000/svg">
<path d="M157.72 25.96V30C155.96 27.24 152.92 25.8 149.4 25.8C143.4 25.8 138.84 29.92 138.84 35.96C138.84 42 143.4 46.2 149.4 46.2C152.84 46.2 155.84 44.8 157.6 42.12V44.8C157.6 50 155.16 52.44 149.84 52.44C146.6 52.44 143.56 51.36 141.56 49.56L140.12 51.72C142.32 53.8 146.08 54.96 149.92 54.96C156.88 54.96 160.44 51.68 160.44 44.44V25.96H157.72ZM149.68 43.68C145.04 43.68 141.72 40.52 141.72 35.96C141.72 31.4 145.04 28.28 149.68 28.28C154.32 28.28 157.68 31.4 157.68 35.96C157.68 40.52 154.32 43.68 149.68 43.68ZM186.742 36.48C186.742 30.16 182.462 25.8 176.542 25.8C170.622 25.8 166.262 30.24 166.262 36.48C166.262 42.72 170.742 47.2 177.302 47.2C180.622 47.2 183.542 46 185.422 43.76L183.822 41.92C182.222 43.76 179.942 44.68 177.382 44.68C172.782 44.68 169.422 41.76 169.102 37.36H186.702C186.702 37.04 186.742 36.72 186.742 36.48ZM176.542 28.24C180.662 28.24 183.662 31.12 184.022 35.24H169.102C169.462 31.12 172.462 28.24 176.542 28.24ZM203.243 25.8C199.603 25.8 196.763 27.28 195.243 29.84V25.96H192.523V47H195.363V35.96C195.363 31.16 198.203 28.36 202.723 28.36C206.723 28.36 209.043 30.64 209.043 35.08V47H211.883V34.8C211.883 28.76 208.363 25.8 203.243 25.8ZM221.033 21.36C222.233 21.36 223.113 20.44 223.113 19.28C223.113 18.2 222.193 17.32 221.033 17.32C219.873 17.32 218.953 18.24 218.953 19.32C218.953 20.44 219.873 21.36 221.033 21.36ZM219.593 47H222.433V25.96H219.593V47ZM248.695 36.48C248.695 30.16 244.415 25.8 238.495 25.8C232.575 25.8 228.215 30.24 228.215 36.48C228.215 42.72 232.695 47.2 239.255 47.2C242.575 47.2 245.495 46 247.375 43.76L245.775 41.92C244.175 43.76 241.895 44.68 239.335 44.68C234.735 44.68 231.375 41.76 231.055 37.36H248.655C248.655 37.04 248.695 36.72 248.695 36.48ZM238.495 28.24C242.615 28.24 245.615 31.12 245.975 35.24H231.055C231.415 31.12 234.415 28.24 238.495 28.24Z" fill="#F52F57"/>
<path d="M13.28 47.32C17.8 47.32 21.36 45.32 22.92 41.88L18.08 39.24C16.92 41.32 15.2 42.2 13.24 42.2C10.08 42.2 7.6 40 7.6 36.24C7.6 32.48 10.08 30.28 13.24 30.28C15.2 30.28 16.92 31.2 18.08 33.24L22.92 30.64C21.36 27.12 17.8 25.16 13.28 25.16C6.28 25.16 1.28 29.76 1.28 36.24C1.28 42.72 6.28 47.32 13.28 47.32ZM32.4728 28.32V25.48H26.5128V47H32.7528V36.84C32.7528 32.72 35.0328 30.84 38.4728 30.84C38.9528 30.84 39.3528 30.88 39.8728 30.92V25.16C36.5528 25.16 33.9928 26.24 32.4728 28.32ZM59.6853 25.48L53.6053 40.08L47.5653 25.48H41.1253L50.4453 47.16L50.3653 47.36C49.5253 49.28 48.5653 50.04 46.8453 50.04C45.6053 50.04 44.2853 49.52 43.3253 48.68L41.0453 53.12C42.4453 54.36 44.8453 55.08 47.0453 55.08C50.9253 55.08 53.8853 53.52 55.9653 48.32L65.6853 25.48H59.6853ZM80.9516 25.16C78.0716 25.16 75.7516 26.08 74.1916 27.96V25.48H68.2316V54.76H74.4716V44.72C76.0716 46.48 78.2716 47.32 80.9516 47.32C86.9916 47.32 91.6716 43 91.6716 36.24C91.6716 29.48 86.9916 25.16 80.9516 25.16ZM79.8716 42.2C76.7516 42.2 74.3916 39.96 74.3916 36.24C74.3916 32.52 76.7516 30.28 79.8716 30.28C82.9916 30.28 85.3516 32.52 85.3516 36.24C85.3516 39.96 82.9916 42.2 79.8716 42.2ZM108.049 41.56C107.369 42.08 106.449 42.36 105.529 42.36C103.849 42.36 102.849 41.36 102.849 39.52V30.76H108.209V25.96H102.849V20.72H96.6088V25.96H93.2888V30.76H96.6088V39.6C96.6088 44.72 99.5688 47.32 104.649 47.32C106.569 47.32 108.449 46.88 109.729 45.96L108.049 41.56ZM122.808 47.32C129.648 47.32 134.608 42.72 134.608 36.24C134.608 29.76 129.648 25.16 122.808 25.16C115.968 25.16 110.968 29.76 110.968 36.24C110.968 42.72 115.968 47.32 122.808 47.32ZM122.808 42.2C119.688 42.2 117.288 39.96 117.288 36.24C117.288 32.52 119.688 30.28 122.808 30.28C125.928 30.28 128.288 32.52 128.288 36.24C128.288 39.96 125.928 42.2 122.808 42.2Z" fill="#DBDBDB"/>
<rect x="216" y="16" width="11" height="6" fill="#0D1117"/>
<path d="M220.916 27.2565L222.4 29V23.2512C222.4 21.7438 221.555 20.3442 220.247 19.6855C219.803 19.4618 219.453 19.0947 219.244 18.6558C220.994 18.2427 222.139 16.497 221.778 14.6816L221.239 11.9664C220.862 10.0659 219.242 8.66668 217.34 8.55937V7.25288C218.418 6.46655 219.026 5.39812 219.026 4.26331C219.026 3.06258 218.367 1.95587 217.171 1.14719C216.076 0.407326 214.638 0 213.122 0C211.607 0 210.169 0.407326 209.074 1.14719C207.877 1.95587 207.218 3.06258 207.218 4.26331C207.218 5.3979 207.827 6.46632 208.905 7.25288V8.55937C207.003 8.66668 205.383 10.0659 205.006 11.9664L204.467 14.6816C204.089 16.5813 205.359 18.3896 207.218 18.7V19.5959C207.218 22.906 209.867 25.5991 213.122 25.5991H217.278C218.694 25.5991 220.02 26.2031 220.916 27.2565ZM210.592 7.22256L213.122 5.32289L215.653 7.22256V8.89214L213.122 10.1663L210.592 8.89214V7.22256ZM210.014 2.55812C210.834 2.0041 211.938 1.699 213.122 1.699C214.307 1.699 215.411 2.0041 216.231 2.55812C216.645 2.83801 217.34 3.43163 217.34 4.26331C217.34 4.78835 217.044 5.31249 216.514 5.75013L213.122 3.20374L209.731 5.75013C209.2 5.31249 208.905 4.78835 208.905 4.26331C208.905 3.43163 209.6 2.83801 210.014 2.55812ZM206.121 15.0151L206.66 12.2999C206.895 11.1126 207.939 10.2511 209.141 10.2511H209.518L213.123 12.066L216.727 10.2511H217.104C218.306 10.2511 219.35 11.1126 219.585 12.2999L220.124 15.0151C220.333 16.0674 219.534 17.0473 218.47 17.0473H217.34V15.3481H219.026V13.6491C216.58 13.6491 209.691 13.6491 207.218 13.6491V15.3481H208.905V17.0473H207.775C206.709 17.0473 205.912 16.0651 206.121 15.0151ZM213.966 17.0473V15.3481H215.653V17.0473H213.966ZM212.279 15.3481V17.0473H210.592V15.3481H212.279ZM213.122 23.9001C210.797 23.9001 208.905 21.9693 208.905 19.5959V18.7463H217.483C217.775 19.8017 218.501 20.7057 219.493 21.2053C220.223 21.573 220.713 22.3952 220.713 23.2512V24.8734C219.7 24.2435 218.513 23.9001 217.278 23.9001H213.122Z" fill="#F52F57"/>
</svg>
